<?xml version="1.0" encoding="UTF-8"?>
<svg id="Layer_2" data-name="Layer 2" xmlns="http://www.w3.org/2000/svg" viewBox="0 0 480.73 382.82">
  <defs>
    <style>
      .cls-1 {
        fill: #004382;
      }

      .cls-2 {
        fill: #00d4f1;
      }
    </style>
  </defs>
  <g id="Camada_1" data-name="Camada 1">
    <g>
      <path class="cls-2" d="m146.25,185.01C75.09,185.01,12.44,132.55,1.85,59.88l-1.85-12.68L313.13,1.55c79.77-11.65,154.12,43.8,165.75,123.56l1.85,12.68-142.59,20.79c-7,1.03-13.5-3.83-14.53-10.83-1.02-7,3.83-13.51,10.83-14.53l116.56-17c-15.07-58.92-72.68-98.24-134.18-89.32L29.71,68.77c6.79,26.66,22.37,50.01,44.73,66.68,25.82,19.25,57.59,27.28,89.45,22.64l15.73-1.94c7.05-.89,13.42,4.13,14.29,11.14.87,7.02-4.12,13.42-11.15,14.28l-15.46,1.91c-7.07,1.04-14.11,1.53-21.06,1.53Z"/>
      <path class="cls-1" d="m186.85,382.82h-14.64v-105.47c0-8.09,6.56-14.64,14.64-14.64s14.64,6.56,14.64,14.64v75.37c64.86-7.3,115.44-62.49,115.44-129.26l1.56-107.38c.11-7.74-3.16-15.1-8.98-20.21-5.82-5.11-13.56-7.4-21.21-6.28l-25.85,3.77c-8,1.16-15.44-4.37-16.6-12.38-1.17-8,4.37-15.43,12.38-16.6l25.85-3.77c16.17-2.37,32.48,2.47,44.75,13.25,12.28,10.77,19.18,26.32,18.94,42.65l-1.56,107.17c0,87.66-71.49,159.15-159.36,159.15Z"/>
    </g>
  </g>
</svg>